<svg width="244" height="370" viewBox="0 0 244 370" fill="none" xmlns="http://www.w3.org/2000/svg">
<path d="M114.702 4.26367L33.7679 122.418C31.6438 125.453 30.5 129.5 30.5 133.619C30.5 142.869 36.1098 150.312 43.0812 150.312H56.6429L16.6661 203.355C14.3786 206.391 13.0714 210.582 13.0714 214.918C13.0714 223.951 18.5723 231.25 25.3804 231.25H43.5714L2.94107 295.928C1.03482 298.963 0 302.793 0 306.768C0 316.162 5.71875 323.75 12.7991 323.75H104.571V346.875C104.571 359.666 112.36 370 122 370C131.64 370 139.429 359.666 139.429 346.875V323.75H231.201C238.281 323.75 244 316.162 244 306.768C244 302.793 242.965 298.963 241.059 295.928L200.429 231.25H218.62C225.428 231.25 230.929 223.951 230.929 214.918C230.929 210.582 229.621 206.391 227.334 203.355L187.357 150.312H200.919C207.836 150.312 213.5 142.869 213.5 133.619C213.5 129.5 212.356 125.453 210.232 122.418L129.298 4.26367C127.446 1.51758 124.778 0 122 0C119.222 0 116.554 1.51758 114.702 4.26367Z" fill="#FCFCFC"/>
</svg>
