<svg width="37" height="40" viewBox="0 0 37 40" fill="none" xmlns="http://www.w3.org/2000/svg">
<g clip-path="url(#clip0_9_766)">
<path d="M17.3936 -2.32371L5.12451 12.2702C4.80251 12.6451 4.62912 13.1449 4.62912 13.6537C4.62912 14.7962 5.47954 15.7156 6.53637 15.7156H8.59223L2.53198 22.2672C2.1852 22.6421 1.98705 23.1598 1.98705 23.6954C1.98705 24.8111 2.82095 25.7126 3.85301 25.7126H6.61068L0.451343 33.7013C0.162366 34.0762 0.00549316 34.5493 0.00549316 35.0402C0.00549316 36.2006 0.872424 37.1378 1.94577 37.1378H15.8579V39.9941C15.8579 41.574 17.0386 42.8504 18.5 42.8504C19.9614 42.8504 21.1421 41.574 21.1421 39.9941V37.1378H35.0543C36.1276 37.1378 36.9945 36.2006 36.9945 35.0402C36.9945 34.5493 36.8377 34.0762 36.5487 33.7013L30.3893 25.7126H33.147C34.1791 25.7126 35.013 24.8111 35.013 23.6954C35.013 23.1598 34.8148 22.6421 34.468 22.2672L28.4078 15.7156H30.4637C31.5122 15.7156 32.3709 14.7962 32.3709 13.6537C32.3709 13.1449 32.1975 12.6451 31.8755 12.2702L19.6064 -2.32371C19.3257 -2.6629 18.9211 -2.85034 18.5 -2.85034C18.0789 -2.85034 17.6744 -2.6629 17.3936 -2.32371Z" fill="#FCFCFC"/>
<path d="M17.3936 -2.32371L5.12451 12.2702C4.80251 12.6451 4.62912 13.1449 4.62912 13.6537C4.62912 14.7962 5.47954 15.7156 6.53637 15.7156H8.59223L2.53198 22.2672C2.1852 22.6421 1.98705 23.1598 1.98705 23.6954C1.98705 24.8111 2.82095 25.7126 3.85301 25.7126H6.61068L0.451343 33.7013C0.162366 34.0762 0.00549316 34.5493 0.00549316 35.0402C0.00549316 36.2006 0.872424 37.1378 1.94577 37.1378H15.8579V39.9941C15.8579 41.574 17.0386 42.8504 18.5 42.8504C19.9614 42.8504 21.1421 41.574 21.1421 39.9941V37.1378H35.0543C36.1276 37.1378 36.9945 36.2006 36.9945 35.0402C36.9945 34.5493 36.8377 34.0762 36.5487 33.7013L30.3893 25.7126H33.147C34.1791 25.7126 35.013 24.8111 35.013 23.6954C35.013 23.1598 34.8148 22.6421 34.468 22.2672L28.4078 15.7156H30.4637C31.5122 15.7156 32.3709 14.7962 32.3709 13.6537C32.3709 13.1449 32.1975 12.6451 31.8755 12.2702L19.6064 -2.32371C19.3257 -2.6629 18.9211 -2.85034 18.5 -2.85034C18.0789 -2.85034 17.6744 -2.6629 17.3936 -2.32371Z" fill="#395442"/>
</g>
<defs>
<clipPath id="clip0_9_766">
<rect width="37" height="40" fill="white"/>
</clipPath>
</defs>
</svg>
