<svg xmlns="http://www.w3.org/2000/svg" xmlns:xlink="http://www.w3.org/1999/xlink" width="500" zoomAndPan="magnify" viewBox="0 0 375 749.999995" height="1000" preserveAspectRatio="xMidYMid meet" version="1.0"><defs><clipPath id="f848ec1b2a"><path d="M 225.769531 0 L 375 0 L 375 274 L 225.769531 274 Z M 225.769531 0 " clip-rule="nonzero"/></clipPath><clipPath id="6b0bb728ca"><path d="M 179.816406 0 L 375 0 L 375 448.757812 L 179.816406 448.757812 Z M 179.816406 0 " clip-rule="nonzero"/></clipPath><clipPath id="46da4d17a2"><path d="M 126.40625 0 L 375 0 L 375 648.847656 L 126.40625 648.847656 Z M 126.40625 0 " clip-rule="nonzero"/></clipPath><clipPath id="96d3678fd1"><path d="M 49.132812 100 L 375 100 L 375 750 L 49.132812 750 Z M 49.132812 100 " clip-rule="nonzero"/></clipPath></defs><rect x="-37.5" width="450" fill="#ffffff" y="-74.999999" height="899.999994" fill-opacity="1"/><rect x="-37.5" width="450" fill="#ffffff" y="-74.999999" height="899.999994" fill-opacity="1"/><g clip-path="url(#f848ec1b2a)"><path fill="#395442" d="M 603.394531 -514.136719 L 981 273.5 L 225.789062 273.5 Z M 603.394531 -514.136719 " fill-opacity="1" fill-rule="nonzero"/></g><g clip-path="url(#6b0bb728ca)"><path fill="#395442" d="M 557.441406 -339.558594 L 935.046875 448.078125 L 179.835938 448.078125 Z M 557.441406 -339.558594 " fill-opacity="1" fill-rule="nonzero"/></g><g clip-path="url(#46da4d17a2)"><path fill="#395442" d="M 504.03125 -139.46875 L 881.636719 648.164062 L 126.425781 648.164062 Z M 504.03125 -139.46875 " fill-opacity="1" fill-rule="nonzero"/></g><g clip-path="url(#96d3678fd1)"><path fill="#395442" d="M 426.757812 100.367188 L 804.363281 888 L 49.152344 888 Z M 426.757812 100.367188 " fill-opacity="1" fill-rule="nonzero"/></g></svg>